%TF.GenerationSoftware,KiCad,Pcbnew,9.0.6*%
%TF.CreationDate,2025-12-26T21:22:12-08:00*%
%TF.ProjectId,PMH Rev 2,504d4820-5265-4762-9032-2e6b69636164,2*%
%TF.SameCoordinates,Original*%
%TF.FileFunction,Copper,L1,Top*%
%TF.FilePolarity,Positive*%
%FSLAX46Y46*%
G04 Gerber Fmt 4.6, Leading zero omitted, Abs format (unit mm)*
G04 Created by KiCad (PCBNEW 9.0.6) date 2025-12-26 21:22:12*
%MOMM*%
%LPD*%
G01*
G04 APERTURE LIST*
%TA.AperFunction,Conductor*%
%ADD10C,0.100000*%
%TD*%
%TA.AperFunction,SMDPad,CuDef*%
%ADD11C,2.000000*%
%TD*%
G04 APERTURE END LIST*
D10*
%TO.N,Net-(TP1-Pad1)*%
X133600000Y-125000000D02*
X133600000Y-77000000D01*
X159200000Y-125000000D02*
X159200000Y-77000000D01*
X151200000Y-77000000D02*
G75*
G02*
X162800000Y-77000000I5800000J0D01*
G01*
X166800000Y-125000000D02*
X166800000Y-77000000D01*
X166200000Y-125000000D02*
G75*
G02*
X161800000Y-125000000I-2200000J0D01*
G01*
X167400000Y-125000000D02*
X167400000Y-77000000D01*
X127000000Y-77000000D02*
G75*
G02*
X131000000Y-77000000I2000000J0D01*
G01*
X124400000Y-77000000D02*
G75*
G02*
X133600000Y-77000000I4600000J0D01*
G01*
X173400000Y-125000000D02*
X173400000Y-77000000D01*
X137000000Y-77000000D02*
G75*
G02*
X149000000Y-77000000I6000000J0D01*
G01*
X166600000Y-77000000D02*
G75*
G02*
X175400000Y-77000000I4400000J0D01*
G01*
X173800000Y-125000000D02*
G75*
G02*
X164000001Y-134599958I-9602000J0D01*
G01*
X124800000Y-77000000D02*
G75*
G02*
X133200000Y-77000000I4200000J0D01*
G01*
X136000000Y-138200000D02*
G75*
G02*
X122800000Y-125000000I0J13200000D01*
G01*
X155400000Y-125000000D02*
G75*
G02*
X144600000Y-125000000I-5400000J0D01*
G01*
X140400000Y-125000000D02*
X140400000Y-77000000D01*
X145600000Y-125000000D02*
X145600000Y-77000000D01*
X130800000Y-125000000D02*
X130800000Y-77000000D01*
X163000000Y-77000000D02*
X163000000Y-125000000D01*
X137600000Y-125000000D02*
X137600000Y-77000000D01*
X138800000Y-77000000D02*
G75*
G02*
X147200000Y-77000000I4200000J0D01*
G01*
X165600000Y-125000000D02*
G75*
G02*
X162400000Y-125000000I-1600000J0D01*
G01*
X172000000Y-77000000D02*
X172000000Y-125000000D01*
X136000000Y-134400000D02*
G75*
G02*
X126600000Y-125000000I0J9400000D01*
G01*
X155400000Y-77000000D02*
G75*
G02*
X158600000Y-77000000I1600000J0D01*
G01*
X140200000Y-125000000D02*
G75*
G02*
X131800000Y-125000000I-4200000J0D01*
G01*
X170200000Y-77000000D02*
X170200000Y-125000000D01*
X158800000Y-125000000D02*
X158800000Y-77000000D01*
X144400000Y-125000000D02*
X144400000Y-77000000D01*
X167600000Y-125000000D02*
G75*
G02*
X160400000Y-125000000I-3600000J0D01*
G01*
X139000000Y-125000000D02*
X139000000Y-77000000D01*
X164000000Y-135000000D02*
X136000000Y-135000000D01*
X141200000Y-77000000D02*
G75*
G02*
X144800000Y-77000000I1800000J0D01*
G01*
X166200000Y-77000000D02*
G75*
G02*
X175800000Y-77000000I4800000J0D01*
G01*
X172600000Y-125000000D02*
G75*
G02*
X164001116Y-133400000I-8402300J0D01*
G01*
X163999698Y-136400000D02*
X136000000Y-136400000D01*
X134800000Y-77000000D02*
X134800000Y-125000000D01*
X172400000Y-125000000D02*
X172400000Y-77000000D01*
X141800000Y-77000000D02*
G75*
G02*
X144200000Y-77000000I1200000J0D01*
G01*
X151600000Y-77000000D02*
G75*
G02*
X162400000Y-77000000I5400000J0D01*
G01*
X131800000Y-125000000D02*
X131800000Y-77000000D01*
X152400000Y-125000000D02*
G75*
G02*
X147600000Y-125000000I-2400000J0D01*
G01*
X148400000Y-125000000D02*
X148400000Y-77000000D01*
X122800000Y-77000000D02*
G75*
G02*
X135200000Y-77000000I6200000J0D01*
G01*
X169000000Y-77000000D02*
G75*
G02*
X173000000Y-77000000I2000000J0D01*
G01*
X125600000Y-77000000D02*
G75*
G02*
X132400000Y-77000000I3400000J0D01*
G01*
X123200000Y-77000000D02*
X123200000Y-125000000D01*
X176800000Y-77000000D02*
X176800000Y-125000000D01*
X136000000Y-135400000D02*
G75*
G02*
X125600000Y-125000000I0J10400000D01*
G01*
X155600000Y-125000000D02*
G75*
G02*
X144400000Y-125000000I-5600000J0D01*
G01*
X128000000Y-77000000D02*
G75*
G02*
X130000000Y-77000000I1000000J0D01*
G01*
X165800000Y-125000000D02*
G75*
G02*
X162200000Y-125000000I-1800000J0D01*
G01*
X155200000Y-77000000D02*
G75*
G02*
X158800000Y-77000000I1800000J0D01*
G01*
X133800000Y-125000000D02*
X133800000Y-77000000D01*
X144600000Y-125000000D02*
X144600000Y-77000000D01*
X147800000Y-125000000D02*
X147800000Y-77000000D01*
X147400000Y-125000000D02*
X147400000Y-77000000D01*
X164000000Y-133000000D02*
X136000000Y-133000000D01*
X136000000Y-134600000D02*
G75*
G02*
X126400000Y-125000000I0J9600000D01*
G01*
X174200000Y-125000000D02*
X174200000Y-77000000D01*
X167800000Y-77000000D02*
G75*
G02*
X174200000Y-77000000I3200000J0D01*
G01*
X142000000Y-77000000D02*
X142000000Y-125000000D01*
X125400000Y-77000000D02*
G75*
G02*
X132600000Y-77000000I3600000J0D01*
G01*
X169800000Y-77000000D02*
G75*
G02*
X172200000Y-77000000I1200000J0D01*
G01*
X170200000Y-125000000D02*
G75*
G02*
X157800000Y-125000000I-6200000J0D01*
G01*
X167200000Y-125000000D02*
G75*
G02*
X160800000Y-125000000I-3200000J0D01*
G01*
X172600000Y-125000000D02*
X172600000Y-77000000D01*
X141400000Y-125000000D02*
G75*
G02*
X130600000Y-125000000I-5400000J0D01*
G01*
X166800000Y-77000000D02*
G75*
G02*
X175200000Y-77000000I4200000J0D01*
G01*
X123000000Y-77000000D02*
X123000000Y-125000000D01*
X159800000Y-125000000D02*
X159800000Y-77000000D01*
X168200000Y-77000000D02*
G75*
G02*
X173800000Y-77000000I2800000J0D01*
G01*
X169800000Y-125000000D02*
G75*
G02*
X158200000Y-125000000I-5800000J0D01*
G01*
X162600000Y-125000000D02*
X162600000Y-77000000D01*
X176800000Y-125000000D02*
G75*
G02*
X163999999Y-137600038I-12601600J0D01*
G01*
X125600000Y-125000000D02*
X125600000Y-77000000D01*
X176600000Y-125000000D02*
G75*
G02*
X164000000Y-137400013I-12401600J0D01*
G01*
X126800000Y-77000000D02*
G75*
G02*
X131200000Y-77000000I2200000J0D01*
G01*
X144000000Y-77000000D02*
X144000000Y-125000000D01*
X152800000Y-125000000D02*
G75*
G02*
X147200000Y-125000000I-2800000J0D01*
G01*
X126200000Y-125000000D02*
X126200000Y-77000000D01*
X141600000Y-77000000D02*
G75*
G02*
X144400000Y-77000000I1400000J0D01*
G01*
X164000000Y-134800000D02*
X136000000Y-134800000D01*
X135000000Y-77000000D02*
X135000000Y-125000000D01*
X154000000Y-125000000D02*
X154000000Y-77000000D01*
X154400000Y-77000000D02*
G75*
G02*
X159600000Y-77000000I2600000J0D01*
G01*
X154600000Y-125000000D02*
X154600000Y-77000000D01*
X158000000Y-77000000D02*
X158000000Y-125000000D01*
X155600000Y-125000000D02*
X155600000Y-77000000D01*
X154400000Y-125000000D02*
G75*
G02*
X145600000Y-125000000I-4400000J0D01*
G01*
X141000000Y-77000000D02*
G75*
G02*
X145000000Y-77000000I2000000J0D01*
G01*
X167200000Y-125000000D02*
X167200000Y-77000000D01*
X125200000Y-125000000D02*
X125200000Y-77000000D01*
X139000000Y-125000000D02*
G75*
G02*
X133000000Y-125000000I-3000000J0D01*
G01*
X126000000Y-125000000D02*
X126000000Y-77000000D01*
X156000000Y-77000000D02*
X156000000Y-125000000D01*
X176000000Y-125000000D02*
X176000000Y-77000000D01*
X153400000Y-125000000D02*
X153400000Y-77000000D01*
X138800000Y-125000000D02*
X138800000Y-77000000D01*
X154800000Y-125000000D02*
G75*
G02*
X145200000Y-125000000I-4800000J0D01*
G01*
X153200000Y-125000000D02*
G75*
G02*
X146800000Y-125000000I-3200000J0D01*
G01*
X166400000Y-125000000D02*
X166400000Y-77000000D01*
X139000000Y-77000000D02*
G75*
G02*
X147000000Y-77000000I4000000J0D01*
G01*
X135200000Y-77000000D02*
X135200000Y-125000000D01*
X139600000Y-77000000D02*
G75*
G02*
X146400000Y-77000000I3400000J0D01*
G01*
X151000000Y-125000000D02*
G75*
G02*
X149000000Y-125000000I-1000000J0D01*
G01*
X164000000Y-133400000D02*
X136000000Y-133400000D01*
X153200000Y-125000000D02*
X153200000Y-77000000D01*
X163999194Y-134400000D02*
X136000000Y-134400000D01*
X160800000Y-125000000D02*
X160800000Y-77000000D01*
X168600000Y-125000000D02*
X168600000Y-77000000D01*
X158200000Y-77000000D02*
X158200000Y-125000000D01*
X155800000Y-125000000D02*
G75*
G02*
X144200000Y-125000000I-5800000J0D01*
G01*
X125000000Y-125000000D02*
X125000000Y-77000000D01*
X173200000Y-125000000D02*
G75*
G02*
X163999999Y-134000027I-9002200J0D01*
G01*
X127200000Y-77000000D02*
G75*
G02*
X130800000Y-77000000I1800000J0D01*
G01*
X130600000Y-125000000D02*
X130600000Y-77000000D01*
X175800000Y-125000000D02*
G75*
G02*
X164000000Y-136600005I-11601700J0D01*
G01*
X176000000Y-125000000D02*
G75*
G02*
X163999999Y-136800034I-11801700J0D01*
G01*
X171800000Y-125000000D02*
G75*
G02*
X163999999Y-132600037I-7602600J0D01*
G01*
X136000000Y-134000000D02*
G75*
G02*
X127000000Y-125000000I0J9000000D01*
G01*
X123200000Y-77000000D02*
G75*
G02*
X134800000Y-77000000I5800000J0D01*
G01*
X131200000Y-125000000D02*
X131200000Y-77000000D01*
X137000000Y-77000000D02*
X137000000Y-125000000D01*
X165800000Y-125000000D02*
X165800000Y-77000000D01*
X164000809Y-137200000D02*
X136000000Y-137200000D01*
X170000000Y-77000000D02*
X170000000Y-125000000D01*
X128200000Y-125000000D02*
X128200000Y-77000000D01*
X132800000Y-125000000D02*
X132800000Y-77000000D01*
X136000000Y-135000000D02*
G75*
G02*
X126000000Y-125000000I0J10000000D01*
G01*
X152600000Y-125000000D02*
X152600000Y-77000000D01*
X167800000Y-125000000D02*
G75*
G02*
X160200000Y-125000000I-3800000J0D01*
G01*
X151000000Y-77000000D02*
G75*
G02*
X163000000Y-77000000I6000000J0D01*
G01*
X125800000Y-125000000D02*
X125800000Y-77000000D01*
X123400000Y-125000000D02*
X123400000Y-77000000D01*
X152200000Y-77000000D02*
G75*
G02*
X161800000Y-77000000I4800000J0D01*
G01*
X141200000Y-125000000D02*
X141200000Y-77000000D01*
X170000000Y-77000000D02*
G75*
G02*
X172000000Y-77000000I1000000J0D01*
G01*
X136000000Y-135600000D02*
G75*
G02*
X125400000Y-125000000I0J10600000D01*
G01*
X136000000Y-136600000D02*
G75*
G02*
X124400000Y-125000000I0J11600000D01*
G01*
X160200000Y-125000000D02*
X160200000Y-77000000D01*
X125000000Y-77000000D02*
G75*
G02*
X133000000Y-77000000I4000000J0D01*
G01*
X141600000Y-125000000D02*
X141600000Y-77000000D01*
X164000000Y-135200000D02*
X136000000Y-135200000D01*
X137200000Y-125000000D02*
G75*
G02*
X134800000Y-125000000I-1200000J0D01*
G01*
X138000000Y-77000000D02*
G75*
G02*
X148000000Y-77000000I5000000J0D01*
G01*
X139400000Y-125000000D02*
G75*
G02*
X132600000Y-125000000I-3400000J0D01*
G01*
X153600000Y-77000000D02*
G75*
G02*
X160400000Y-77000000I3400000J0D01*
G01*
X175000000Y-125000000D02*
G75*
G02*
X164000000Y-135799981I-10801800J0D01*
G01*
X164000000Y-137600000D02*
X136000000Y-137600000D01*
X152800000Y-125000000D02*
X152800000Y-77000000D01*
X139800000Y-125000000D02*
X139800000Y-77000000D01*
X141600000Y-125000000D02*
G75*
G02*
X130400000Y-125000000I-5600000J0D01*
G01*
X165400000Y-125000000D02*
X165400000Y-77000000D01*
X144200000Y-77000000D02*
X144200000Y-125000000D01*
X140400000Y-125000000D02*
G75*
G02*
X131600000Y-125000000I-4400000J0D01*
G01*
X161400000Y-125000000D02*
X161400000Y-77000000D01*
X131400000Y-125000000D02*
X131400000Y-77000000D01*
X164000000Y-137400000D02*
X136000000Y-137400000D01*
X177000000Y-125000000D02*
G75*
G02*
X164000001Y-137799961I-12801500J0D01*
G01*
X154800000Y-77000000D02*
G75*
G02*
X159200000Y-77000000I2200000J0D01*
G01*
X174000000Y-125000000D02*
X174000000Y-77000000D01*
X164000000Y-135599998D02*
X136000000Y-135600000D01*
X140800000Y-77000000D02*
G75*
G02*
X145200000Y-77000000I2200000J0D01*
G01*
X162800000Y-77000000D02*
X162800000Y-125000000D01*
X136000000Y-133200000D02*
G75*
G02*
X127800000Y-125000000I0J8200000D01*
G01*
X134000000Y-125000000D02*
X134000000Y-77000000D01*
X137400000Y-77000000D02*
G75*
G02*
X148600000Y-77000000I5600000J0D01*
G01*
X167000000Y-125000000D02*
X167000000Y-77000000D01*
X168800000Y-125000000D02*
X168800000Y-77000000D01*
X164000000Y-132800000D02*
X136000000Y-132800000D01*
X140200000Y-125000000D02*
X140200000Y-77000000D01*
X163999960Y-137000000D02*
X136000000Y-137000000D01*
X175400000Y-125000000D02*
X175400000Y-77000000D01*
X152000000Y-125000000D02*
G75*
G02*
X148000000Y-125000000I-2000000J0D01*
G01*
X128000000Y-125000000D02*
X128000000Y-77000000D01*
X136000000Y-134800000D02*
G75*
G02*
X126200000Y-125000000I0J9800000D01*
G01*
X168600000Y-125000000D02*
G75*
G02*
X159400000Y-125000000I-4600000J0D01*
G01*
X123000000Y-77000000D02*
G75*
G02*
X135000000Y-77000000I6000000J0D01*
G01*
X153800000Y-125000000D02*
G75*
G02*
X146200000Y-125000000I-3800000J0D01*
G01*
X146000000Y-125000000D02*
X146000000Y-77000000D01*
X138600000Y-125000000D02*
G75*
G02*
X133400000Y-125000000I-2600000J0D01*
G01*
X140000000Y-125000000D02*
G75*
G02*
X132000000Y-125000000I-4000000J0D01*
G01*
X152600000Y-125000000D02*
G75*
G02*
X147400000Y-125000000I-2600000J0D01*
G01*
X164001012Y-135800000D02*
X136000000Y-135800000D01*
X155600000Y-77000000D02*
G75*
G02*
X158400000Y-77000000I1400000J0D01*
G01*
X154200000Y-77000000D02*
G75*
G02*
X159800000Y-77000000I2800000J0D01*
G01*
X131600000Y-125000000D02*
X131600000Y-77000000D01*
X169400000Y-125000000D02*
G75*
G02*
X158600000Y-125000000I-5400000J0D01*
G01*
X170000000Y-125000000D02*
G75*
G02*
X158000000Y-125000000I-6000000J0D01*
G01*
X142000000Y-77000000D02*
G75*
G02*
X144000000Y-77000000I1000000J0D01*
G01*
X146600000Y-125000000D02*
X146600000Y-77000000D01*
X169600000Y-125000000D02*
X169600000Y-77000000D01*
X154600000Y-125000000D02*
G75*
G02*
X145400000Y-125000000I-4600000J0D01*
G01*
X137800000Y-125000000D02*
X137800000Y-77000000D01*
X174400000Y-125000000D02*
G75*
G02*
X164000000Y-135199976I-10201900J0D01*
G01*
X168200000Y-125000000D02*
G75*
G02*
X159800000Y-125000000I-4200000J0D01*
G01*
X137200000Y-77000000D02*
G75*
G02*
X148800000Y-77000000I5800000J0D01*
G01*
X164000000Y-137800000D02*
X136000000Y-137800000D01*
X140600000Y-77000000D02*
G75*
G02*
X145400000Y-77000000I2400000J0D01*
G01*
X141400000Y-125000000D02*
X141400000Y-77000000D01*
X126800000Y-125000000D02*
X126800000Y-77000000D01*
X152800000Y-77000000D02*
G75*
G02*
X161200000Y-77000000I4200000J0D01*
G01*
X138400000Y-77000000D02*
G75*
G02*
X147600000Y-77000000I4600000J0D01*
G01*
X166000000Y-125000000D02*
X166000000Y-77000000D01*
X136000000Y-135200000D02*
G75*
G02*
X125800000Y-125000000I0J10200000D01*
G01*
X153200000Y-77000000D02*
G75*
G02*
X160800000Y-77000000I3800000J0D01*
G01*
X164000000Y-133800000D02*
X136000000Y-133800000D01*
X162400000Y-125000000D02*
X162400000Y-77000000D01*
X173400000Y-125000000D02*
G75*
G02*
X164000001Y-134199972I-9202100J0D01*
G01*
X177200000Y-125000000D02*
G75*
G02*
X164000000Y-137999985I-13001500J0D01*
G01*
X142200000Y-125000000D02*
G75*
G02*
X129800000Y-125000000I-6200000J0D01*
G01*
X136000000Y-136000000D02*
G75*
G02*
X125000000Y-125000000I0J11000000D01*
G01*
X137000000Y-125000000D02*
G75*
G02*
X135000000Y-125000000I-1000000J0D01*
G01*
X159400000Y-125000000D02*
X159400000Y-77000000D01*
X171800000Y-77000000D02*
X171800000Y-125000000D01*
X169200000Y-77000000D02*
G75*
G02*
X172800000Y-77000000I1800000J0D01*
G01*
X141200000Y-125000000D02*
G75*
G02*
X130800000Y-125000000I-5200000J0D01*
G01*
X154200000Y-125000000D02*
X154200000Y-77000000D01*
X140200000Y-77000000D02*
G75*
G02*
X145800000Y-77000000I2800000J0D01*
G01*
X132200000Y-125000000D02*
X132200000Y-77000000D01*
X154000000Y-77000000D02*
G75*
G02*
X160000000Y-77000000I3000000J0D01*
G01*
X174000000Y-125000000D02*
G75*
G02*
X164000000Y-134800000I-9802000J0D01*
G01*
X166400000Y-77000000D02*
G75*
G02*
X175600000Y-77000000I4600000J0D01*
G01*
X126600000Y-77000000D02*
G75*
G02*
X131400000Y-77000000I2400000J0D01*
G01*
X136000000Y-136400000D02*
G75*
G02*
X124600000Y-125000000I0J11400000D01*
G01*
X155800000Y-77000000D02*
G75*
G02*
X158200000Y-77000000I1200000J0D01*
G01*
X136000000Y-137000000D02*
G75*
G02*
X124000000Y-125000000I0J12000000D01*
G01*
X151400000Y-77000000D02*
G75*
G02*
X162600000Y-77000000I5600000J0D01*
G01*
X151200000Y-125000000D02*
G75*
G02*
X148800000Y-125000000I-1200000J0D01*
G01*
X138200000Y-125000000D02*
G75*
G02*
X133800000Y-125000000I-2200000J0D01*
G01*
X169600000Y-77000000D02*
G75*
G02*
X172400000Y-77000000I1400000J0D01*
G01*
X127400000Y-125000000D02*
X127400000Y-77000000D01*
X173000000Y-125000000D02*
X173000000Y-77000000D01*
X137400000Y-125000000D02*
G75*
G02*
X134600000Y-125000000I-1400000J0D01*
G01*
X145800000Y-125000000D02*
X145800000Y-77000000D01*
X164000000Y-133200000D02*
X136000000Y-133200000D01*
X151200000Y-77000000D02*
X151200000Y-125000000D01*
X176600000Y-125000000D02*
X176600000Y-77000000D01*
X159600000Y-125000000D02*
X159600000Y-77000000D01*
X151600000Y-125000000D02*
G75*
G02*
X148400000Y-125000000I-1600000J0D01*
G01*
X156200000Y-125000000D02*
G75*
G02*
X143800000Y-125000000I-6200000J0D01*
G01*
X123400000Y-77000000D02*
G75*
G02*
X134600000Y-77000000I5600000J0D01*
G01*
X151800000Y-125000000D02*
X151800000Y-77000000D01*
X140800000Y-125000000D02*
X140800000Y-77000000D01*
X148200000Y-125000000D02*
X148200000Y-77000000D01*
X169400000Y-125000000D02*
X169400000Y-77000000D01*
X166000000Y-125000000D02*
G75*
G02*
X162000000Y-125000000I-2000000J0D01*
G01*
X147600000Y-125000000D02*
X147600000Y-77000000D01*
X164800000Y-125000000D02*
G75*
G02*
X163200000Y-125000000I-800000J0D01*
G01*
X123800000Y-77000000D02*
G75*
G02*
X134200000Y-77000000I5200000J0D01*
G01*
X176400000Y-125000000D02*
X176400000Y-77000000D01*
X140000000Y-125000000D02*
X140000000Y-77000000D01*
X126400000Y-77000000D02*
G75*
G02*
X131600000Y-77000000I2600000J0D01*
G01*
X139400000Y-77000000D02*
G75*
G02*
X146600000Y-77000000I3600000J0D01*
G01*
X173800000Y-125000000D02*
X173800000Y-77000000D01*
X137200000Y-77000000D02*
X137200000Y-125000000D01*
X136800000Y-77000000D02*
X136800000Y-125000000D01*
X125800000Y-77000000D02*
G75*
G02*
X132200000Y-77000000I3200000J0D01*
G01*
X175600000Y-125000000D02*
G75*
G02*
X164000000Y-136399975I-11401700J0D01*
G01*
X167000000Y-77000000D02*
G75*
G02*
X175000000Y-77000000I4000000J0D01*
G01*
X150800000Y-77000000D02*
X150800000Y-125000000D01*
X167400000Y-125000000D02*
G75*
G02*
X160600000Y-125000000I-3400000J0D01*
G01*
X165200000Y-125000000D02*
G75*
G02*
X162800000Y-125000000I-1200000J0D01*
G01*
X124200000Y-77000000D02*
G75*
G02*
X133800000Y-77000000I4800000J0D01*
G01*
X164000000Y-136000014D02*
X136000000Y-136000000D01*
X133000000Y-125000000D02*
X133000000Y-77000000D01*
X153600000Y-125000000D02*
X153600000Y-77000000D01*
X142200000Y-77000000D02*
G75*
G02*
X143800000Y-77000000I800000J0D01*
G01*
X172200000Y-125000000D02*
G75*
G02*
X164000001Y-132999960I-8002400J0D01*
G01*
X142200000Y-77000000D02*
X142200000Y-125000000D01*
X165000000Y-125000000D02*
G75*
G02*
X163000000Y-125000000I-1000000J0D01*
G01*
X169200000Y-125000000D02*
G75*
G02*
X158800000Y-125000000I-5200000J0D01*
G01*
X128200000Y-77000000D02*
G75*
G02*
X129800000Y-77000000I800000J0D01*
G01*
X153000000Y-125000000D02*
X153000000Y-77000000D01*
X133400000Y-125000000D02*
X133400000Y-77000000D01*
X168000000Y-125000000D02*
G75*
G02*
X160000000Y-125000000I-4000000J0D01*
G01*
X149200000Y-77000000D02*
X149200000Y-125000000D01*
X175000000Y-125000000D02*
X175000000Y-77000000D01*
X174400000Y-125000000D02*
X174400000Y-77000000D01*
X163999799Y-136800000D02*
X136000000Y-136800000D01*
X172400000Y-125000000D02*
G75*
G02*
X164000000Y-133200020I-8202400J0D01*
G01*
X132000000Y-125000000D02*
X132000000Y-77000000D01*
X168400000Y-77000000D02*
G75*
G02*
X173600000Y-77000000I2600000J0D01*
G01*
X167400000Y-77000000D02*
G75*
G02*
X174600000Y-77000000I3600000J0D01*
G01*
X124000000Y-77000000D02*
G75*
G02*
X134000000Y-77000000I5000000J0D01*
G01*
X175800000Y-125000000D02*
X175800000Y-77000000D01*
X123800000Y-125000000D02*
X123800000Y-77000000D01*
X134400000Y-125000000D02*
X134400000Y-77000000D01*
X136800000Y-77000000D02*
G75*
G02*
X149200000Y-77000000I6200000J0D01*
G01*
X156200000Y-77000000D02*
X156200000Y-125000000D01*
X172800000Y-125000000D02*
G75*
G02*
X163999999Y-133600028I-8602300J0D01*
G01*
X136000000Y-134200000D02*
G75*
G02*
X126800000Y-125000000I0J9200000D01*
G01*
X169200000Y-125000000D02*
X169200000Y-77000000D01*
X168800000Y-77000000D02*
G75*
G02*
X173200000Y-77000000I2200000J0D01*
G01*
X157800000Y-77000000D02*
X157800000Y-125000000D01*
X168200000Y-125000000D02*
X168200000Y-77000000D01*
X174800000Y-125000000D02*
X174800000Y-77000000D01*
X163200000Y-77000000D02*
X163200000Y-125000000D01*
X166600000Y-125000000D02*
X166600000Y-77000000D01*
X159000000Y-125000000D02*
X159000000Y-77000000D01*
X155000000Y-125000000D02*
G75*
G02*
X145000000Y-125000000I-5000000J0D01*
G01*
X139200000Y-125000000D02*
G75*
G02*
X132800000Y-125000000I-3200000J0D01*
G01*
X124600000Y-77000000D02*
G75*
G02*
X133400000Y-77000000I4400000J0D01*
G01*
X137600000Y-77000000D02*
G75*
G02*
X148400000Y-77000000I5400000J0D01*
G01*
X141000000Y-125000000D02*
G75*
G02*
X131000000Y-125000000I-5000000J0D01*
G01*
X151000000Y-77000000D02*
X151000000Y-125000000D01*
X140400000Y-77000000D02*
G75*
G02*
X145600000Y-77000000I2600000J0D01*
G01*
X129800000Y-125000000D02*
X129800000Y-77000000D01*
X155000000Y-77000000D02*
G75*
G02*
X159000000Y-77000000I2000000J0D01*
G01*
X168400000Y-125000000D02*
G75*
G02*
X159600000Y-125000000I-4400000J0D01*
G01*
X138200000Y-125000000D02*
X138200000Y-77000000D01*
X138200000Y-77000000D02*
G75*
G02*
X147800000Y-77000000I4800000J0D01*
G01*
X142000000Y-125000000D02*
G75*
G02*
X130000000Y-125000000I-6000000J0D01*
G01*
X152200000Y-125000000D02*
G75*
G02*
X147800000Y-125000000I-2200000J0D01*
G01*
X136000000Y-133800000D02*
G75*
G02*
X127200000Y-125000000I0J8800000D01*
G01*
X155200000Y-125000000D02*
X155200000Y-77000000D01*
X127600000Y-77000000D02*
G75*
G02*
X130400000Y-77000000I1400000J0D01*
G01*
X177200000Y-77000000D02*
X177200000Y-125000000D01*
X125400000Y-125000000D02*
X125400000Y-77000000D01*
X164000000Y-138000000D02*
X136000000Y-138000000D01*
X154800000Y-125000000D02*
X154800000Y-77000000D01*
X136000000Y-137200000D02*
G75*
G02*
X123800000Y-125000000I0J12200000D01*
G01*
X160000000Y-125000000D02*
X160000000Y-77000000D01*
X139600000Y-125000000D02*
X139600000Y-77000000D01*
X127800000Y-125000000D02*
X127800000Y-77000000D01*
X173600000Y-125000000D02*
X173600000Y-77000000D01*
X124600000Y-125000000D02*
X124600000Y-77000000D01*
X147200000Y-125000000D02*
X147200000Y-77000000D01*
X169000000Y-125000000D02*
X169000000Y-77000000D01*
X154600000Y-77000000D02*
G75*
G02*
X159400000Y-77000000I2400000J0D01*
G01*
X161800000Y-125000000D02*
X161800000Y-77000000D01*
X177000000Y-77000000D02*
X177000000Y-125000000D01*
X139400000Y-125000000D02*
X139400000Y-77000000D01*
X149000000Y-77000000D02*
X149000000Y-125000000D01*
X146400000Y-125000000D02*
X146400000Y-77000000D01*
X136000000Y-133000000D02*
G75*
G02*
X128000000Y-125000000I0J8000000D01*
G01*
X168000000Y-125000000D02*
X168000000Y-77000000D01*
X161600000Y-125000000D02*
X161600000Y-77000000D01*
X136800000Y-125000000D02*
G75*
G02*
X135200000Y-125000000I-800000J0D01*
G01*
X136000000Y-135800000D02*
G75*
G02*
X125200000Y-125000000I0J10800000D01*
G01*
X172200000Y-77000000D02*
X172200000Y-125000000D01*
X150800000Y-125000000D02*
G75*
G02*
X149200000Y-125000000I-800000J0D01*
G01*
X146800000Y-125000000D02*
X146800000Y-77000000D01*
X166000000Y-77000000D02*
G75*
G02*
X176000000Y-77000000I5000000J0D01*
G01*
X164000000Y-134000000D02*
X136000000Y-134000000D01*
X136000000Y-137800000D02*
G75*
G02*
X123200000Y-125000000I0J12800000D01*
G01*
X140600000Y-125000000D02*
G75*
G02*
X131400000Y-125000000I-4600000J0D01*
G01*
X138000000Y-125000000D02*
G75*
G02*
X134000000Y-125000000I-2000000J0D01*
G01*
X126200000Y-77000000D02*
G75*
G02*
X131800000Y-77000000I2800000J0D01*
G01*
X130400000Y-125000000D02*
X130400000Y-77000000D01*
X147000000Y-125000000D02*
X147000000Y-77000000D01*
X137600000Y-125000000D02*
G75*
G02*
X134400000Y-125000000I-1600000J0D01*
G01*
X153000000Y-77000000D02*
G75*
G02*
X161000000Y-77000000I4000000J0D01*
G01*
X165400000Y-125000000D02*
G75*
G02*
X162600000Y-125000000I-1400000J0D01*
G01*
X127400000Y-77000000D02*
G75*
G02*
X130600000Y-77000000I1600000J0D01*
G01*
X176200000Y-125000000D02*
G75*
G02*
X164000001Y-136999960I-12001600J0D01*
G01*
X175200000Y-125000000D02*
X175200000Y-77000000D01*
X139800000Y-77000000D02*
G75*
G02*
X146200000Y-77000000I3200000J0D01*
G01*
X141800000Y-77000000D02*
X141800000Y-125000000D01*
X124800000Y-125000000D02*
X124800000Y-77000000D01*
X173600000Y-125000000D02*
G75*
G02*
X164000000Y-134400017I-9402100J0D01*
G01*
X172800000Y-125000000D02*
X172800000Y-77000000D01*
X136000000Y-137600000D02*
G75*
G02*
X123400000Y-125000000I0J12600000D01*
G01*
X161000000Y-125000000D02*
X161000000Y-77000000D01*
X148000000Y-125000000D02*
X148000000Y-77000000D01*
X145400000Y-125000000D02*
X145400000Y-77000000D01*
X139200000Y-125000000D02*
X139200000Y-77000000D01*
X136000000Y-136200000D02*
G75*
G02*
X124800000Y-125000000I0J11200000D01*
G01*
X162200000Y-125000000D02*
X162200000Y-77000000D01*
X175400000Y-125000000D02*
G75*
G02*
X164000000Y-136199996I-11201750J0D01*
G01*
X131000000Y-125000000D02*
X131000000Y-77000000D01*
X164000000Y-135400000D02*
X136000000Y-135400000D01*
X154000000Y-125000000D02*
G75*
G02*
X146000000Y-125000000I-4000000J0D01*
G01*
X164002031Y-134600000D02*
X136000000Y-134600000D01*
X154400000Y-125000000D02*
X154400000Y-77000000D01*
X160600000Y-125000000D02*
X160600000Y-77000000D01*
X141400000Y-77000000D02*
G75*
G02*
X144600000Y-77000000I1600000J0D01*
G01*
X153800000Y-125000000D02*
X153800000Y-77000000D01*
X164000000Y-136200000D02*
X136000000Y-136200000D01*
X126000000Y-77000000D02*
G75*
G02*
X132000000Y-77000000I3000000J0D01*
G01*
X175200000Y-125000000D02*
G75*
G02*
X164000000Y-136000015I-11001800J0D01*
G01*
X167600000Y-77000000D02*
G75*
G02*
X174400000Y-77000000I3400000J0D01*
G01*
X151400000Y-125000000D02*
X151400000Y-77000000D01*
X137800000Y-77000000D02*
G75*
G02*
X148200000Y-77000000I5200000J0D01*
G01*
X139200000Y-77000000D02*
G75*
G02*
X146800000Y-77000000I3800000J0D01*
G01*
X166800000Y-125000000D02*
G75*
G02*
X161200000Y-125000000I-2800000J0D01*
G01*
X174600000Y-125000000D02*
X174600000Y-77000000D01*
X153600000Y-125000000D02*
G75*
G02*
X146400000Y-125000000I-3600000J0D01*
G01*
X166400000Y-125000000D02*
G75*
G02*
X161600000Y-125000000I-2400000J0D01*
G01*
X160400000Y-125000000D02*
X160400000Y-77000000D01*
X153400000Y-125000000D02*
G75*
G02*
X146600000Y-125000000I-3400000J0D01*
G01*
X138000000Y-125000000D02*
X138000000Y-77000000D01*
X152000000Y-77000000D02*
G75*
G02*
X162000000Y-77000000I5000000J0D01*
G01*
X167600000Y-125000000D02*
X167600000Y-77000000D01*
X148800000Y-77000000D02*
X148800000Y-125000000D01*
X167800000Y-125000000D02*
X167800000Y-77000000D01*
X138400000Y-125000000D02*
G75*
G02*
X133600000Y-125000000I-2400000J0D01*
G01*
X165000000Y-77000000D02*
G75*
G02*
X177000000Y-77000000I6000000J0D01*
G01*
X158600000Y-125000000D02*
X158600000Y-77000000D01*
X127800000Y-77000000D02*
G75*
G02*
X130200000Y-77000000I1200000J0D01*
G01*
X136000000Y-133600000D02*
G75*
G02*
X127400000Y-125000000I0J8600000D01*
G01*
X151800000Y-125000000D02*
G75*
G02*
X148200000Y-125000000I-1800000J0D01*
G01*
X156200000Y-77000000D02*
G75*
G02*
X157800000Y-77000000I800000J0D01*
G01*
X162000000Y-125000000D02*
X162000000Y-77000000D01*
X164800000Y-77000000D02*
G75*
G02*
X177200000Y-77000000I6200000J0D01*
G01*
X136000000Y-137400000D02*
G75*
G02*
X123600000Y-125000000I0J12400000D01*
G01*
X167200000Y-77000000D02*
G75*
G02*
X174800000Y-77000000I3800000J0D01*
G01*
X153000000Y-125000000D02*
G75*
G02*
X147000000Y-125000000I-3000000J0D01*
G01*
X169600000Y-125000000D02*
G75*
G02*
X158400000Y-125000000I-5600000J0D01*
G01*
X165200000Y-77000000D02*
X165200000Y-125000000D01*
X140000000Y-77000000D02*
G75*
G02*
X146000000Y-77000000I3000000J0D01*
G01*
X169400000Y-77000000D02*
G75*
G02*
X172600000Y-77000000I1600000J0D01*
G01*
X124200000Y-125000000D02*
X124200000Y-77000000D01*
X156000000Y-77000000D02*
G75*
G02*
X158000000Y-77000000I1000000J0D01*
G01*
X165800000Y-77000000D02*
G75*
G02*
X176200000Y-77000000I5200000J0D01*
G01*
X130200000Y-125000000D02*
X130200000Y-77000000D01*
X166600000Y-125000000D02*
G75*
G02*
X161400000Y-125000000I-2600000J0D01*
G01*
X176400000Y-125000000D02*
G75*
G02*
X164000000Y-137199987I-12201600J0D01*
G01*
X150800000Y-77000000D02*
G75*
G02*
X163200000Y-77000000I6200000J0D01*
G01*
X163999194Y-134200000D02*
X136000000Y-134200000D01*
X139600000Y-125000000D02*
G75*
G02*
X132400000Y-125000000I-3600000J0D01*
G01*
X136000000Y-136800000D02*
G75*
G02*
X124200000Y-125000000I0J11800000D01*
G01*
X152000000Y-125000000D02*
X152000000Y-77000000D01*
X173000000Y-125000000D02*
G75*
G02*
X164000001Y-133799977I-8802200J0D01*
G01*
X136000000Y-138200000D02*
G75*
G02*
X143000005Y-141099995I0J-9898300D01*
G01*
X141000000Y-125000000D02*
X141000000Y-77000000D01*
X167000000Y-125000000D02*
G75*
G02*
X161000000Y-125000000I-3000000J0D01*
G01*
X152400000Y-77000000D02*
G75*
G02*
X161600000Y-77000000I4600000J0D01*
G01*
X152600000Y-77000000D02*
G75*
G02*
X161400000Y-77000000I4400000J0D01*
G01*
X153400000Y-77000000D02*
G75*
G02*
X160600000Y-77000000I3600000J0D01*
G01*
X151800000Y-77000000D02*
G75*
G02*
X162200000Y-77000000I5200000J0D01*
G01*
X164000000Y-133600000D02*
X136000000Y-133600000D01*
X139800000Y-125000000D02*
G75*
G02*
X132200000Y-125000000I-3800000J0D01*
G01*
X155800000Y-77000000D02*
X155800000Y-125000000D01*
X138600000Y-125000000D02*
X138600000Y-77000000D01*
X130000000Y-125000000D02*
X130000000Y-77000000D01*
X168600000Y-77000000D02*
G75*
G02*
X173400000Y-77000000I2400000J0D01*
G01*
X152400000Y-125000000D02*
X152400000Y-77000000D01*
X132400000Y-125000000D02*
X132400000Y-77000000D01*
X163999698Y-136600000D02*
X136000000Y-136600000D01*
X146200000Y-125000000D02*
X146200000Y-77000000D01*
X124000000Y-125000000D02*
X124000000Y-77000000D01*
X144800000Y-125000000D02*
X144800000Y-77000000D01*
X154200000Y-125000000D02*
G75*
G02*
X145800000Y-125000000I-4200000J0D01*
G01*
X136000000Y-132800000D02*
G75*
G02*
X128200000Y-125000000I0J7800000D01*
G01*
X169000000Y-125000000D02*
G75*
G02*
X159000000Y-125000000I-5000000J0D01*
G01*
X153800000Y-77000000D02*
G75*
G02*
X160200000Y-77000000I3200000J0D01*
G01*
X155400000Y-125000000D02*
X155400000Y-77000000D01*
X158400000Y-125000000D02*
X158400000Y-77000000D01*
X168000000Y-77000000D02*
G75*
G02*
X174000000Y-77000000I3000000J0D01*
G01*
X145200000Y-125000000D02*
X145200000Y-77000000D01*
X168400000Y-125000000D02*
X168400000Y-77000000D01*
X141800000Y-125000000D02*
G75*
G02*
X130200000Y-125000000I-5800000J0D01*
G01*
X165600000Y-77000000D02*
G75*
G02*
X176400000Y-77000000I5400000J0D01*
G01*
X165400000Y-77000000D02*
G75*
G02*
X176600000Y-77000000I5600000J0D01*
G01*
X169800000Y-77000000D02*
X169800000Y-125000000D01*
X134200000Y-125000000D02*
X134200000Y-77000000D01*
X173200000Y-125000000D02*
X173200000Y-77000000D01*
X125200000Y-77000000D02*
G75*
G02*
X132800000Y-77000000I3800000J0D01*
G01*
X156000000Y-125000000D02*
G75*
G02*
X144000000Y-125000000I-6000000J0D01*
G01*
X148600000Y-125000000D02*
X148600000Y-77000000D01*
X123600000Y-77000000D02*
G75*
G02*
X134400000Y-77000000I5400000J0D01*
G01*
X126400000Y-125000000D02*
X126400000Y-77000000D01*
X152200000Y-125000000D02*
X152200000Y-77000000D01*
X166200000Y-125000000D02*
X166200000Y-77000000D01*
X134600000Y-125000000D02*
X134600000Y-77000000D01*
X136000000Y-138000000D02*
G75*
G02*
X123000000Y-125000000I0J13000000D01*
G01*
X161200000Y-125000000D02*
X161200000Y-77000000D01*
X138400000Y-125000000D02*
X138400000Y-77000000D01*
X123600000Y-125000000D02*
X123600000Y-77000000D01*
X143800000Y-77000000D02*
X143800000Y-125000000D01*
X137400000Y-125000000D02*
X137400000Y-77000000D01*
X138800000Y-125000000D02*
G75*
G02*
X133200000Y-125000000I-2800000J0D01*
G01*
X155200000Y-125000000D02*
G75*
G02*
X144800000Y-125000000I-5200000J0D01*
G01*
X138600000Y-77000000D02*
G75*
G02*
X147400000Y-77000000I4400000J0D01*
G01*
X151400000Y-125000000D02*
G75*
G02*
X148600000Y-125000000I-1400000J0D01*
G01*
X174600000Y-125000000D02*
G75*
G02*
X164000000Y-135400013I-10401900J0D01*
G01*
X172000000Y-125000000D02*
G75*
G02*
X164000000Y-132800000I-7802500J0D01*
G01*
X170200000Y-77000000D02*
G75*
G02*
X171800000Y-77000000I800000J0D01*
G01*
X140800000Y-125000000D02*
G75*
G02*
X131200000Y-125000000I-4800000J0D01*
G01*
X133200000Y-125000000D02*
X133200000Y-77000000D01*
X136000000Y-133400000D02*
G75*
G02*
X127600000Y-125000000I0J8400000D01*
G01*
X176200000Y-125000000D02*
X176200000Y-77000000D01*
X165000000Y-77000000D02*
X165000000Y-125000000D01*
X127600000Y-125000000D02*
X127600000Y-77000000D01*
X124400000Y-125000000D02*
X124400000Y-77000000D01*
X165600000Y-125000000D02*
X165600000Y-77000000D01*
X168800000Y-125000000D02*
G75*
G02*
X159200000Y-125000000I-4800000J0D01*
G01*
X155000000Y-125000000D02*
X155000000Y-77000000D01*
X127200000Y-125000000D02*
X127200000Y-77000000D01*
X174800000Y-125000000D02*
G75*
G02*
X163999999Y-135600049I-10601900J0D01*
G01*
X174200000Y-125000000D02*
G75*
G02*
X163999999Y-135000040I-10002000J0D01*
G01*
X127000000Y-125000000D02*
X127000000Y-77000000D01*
X151600000Y-125000000D02*
X151600000Y-77000000D01*
X164800000Y-77000000D02*
X164800000Y-125000000D01*
X137800000Y-125000000D02*
G75*
G02*
X134200000Y-125000000I-1800000J0D01*
G01*
X165200000Y-77000000D02*
G75*
G02*
X176800000Y-77000000I5800000J0D01*
G01*
X132600000Y-125000000D02*
X132600000Y-77000000D01*
X175600000Y-125000000D02*
X175600000Y-77000000D01*
X164000000Y-132600000D02*
G75*
G02*
X156999997Y-130500005I0J12716700D01*
G01*
X126600000Y-125000000D02*
X126600000Y-77000000D01*
X140600000Y-125000000D02*
X140600000Y-77000000D01*
X145000000Y-125000000D02*
X145000000Y-77000000D01*
X122800000Y-77000000D02*
X122800000Y-125000000D01*
%TD*%
D11*
%TO.P,TP2,1,1*%
%TO.N,Net-(TP1-Pad1)*%
X157000000Y-130500000D03*
%TD*%
%TO.P,TP1,1,1*%
%TO.N,Net-(TP1-Pad1)*%
X143000000Y-141100000D03*
%TD*%
M02*
